<svg width="32" height="33" viewBox="0 0 32 33" fill="none" xmlns="http://www.w3.org/2000/svg">
<path d="M25.1613 29.9839L18.3226 20.5L17.2903 20.9516L19.0968 32.5H12.9032L14.7097 20.9516L13.6774 20.5L6.83871 29.9839L2.51613 25.6613L12 18.8226L11.5484 17.7903L0 19.5968V13.4032L11.5484 15.2097L12 14.1774L2.51613 7.33871L6.83871 3.01613L13.6774 12.5L14.7097 12.0484L12.9032 0.5H19.0968L17.2903 12.0484L18.3226 12.5L25.1613 3.01613L29.4839 7.33871L20 14.1774L20.4516 15.2097L32 13.4032V19.5968L20.4516 17.7903L20 18.8226L29.4839 25.6613L25.1613 29.9839Z" fill="#0066FF"/>
<path d="M25.1613 29.9839L18.3226 20.5L17.2903 20.9516L19.0968 32.5H12.9032L14.7097 20.9516L13.6774 20.5L6.83871 29.9839L2.51613 25.6613L12 18.8226L11.5484 17.7903L0 19.5968V13.4032L11.5484 15.2097L12 14.1774L2.51613 7.33871L6.83871 3.01613L13.6774 12.5L14.7097 12.0484L12.9032 0.5H19.0968L17.2903 12.0484L18.3226 12.5L25.1613 3.01613L29.4839 7.33871L20 14.1774L20.4516 15.2097L32 13.4032V19.5968L20.4516 17.7903L20 18.8226L29.4839 25.6613L25.1613 29.9839Z" stroke="black"/>
</svg>
