<svg width="26" height="26" viewBox="0 0 26 26" fill="none" xmlns="http://www.w3.org/2000/svg">
<path d="M20.1829 23.7171L14.6973 16.1097L13.8692 16.4719L15.3183 25.7353H10.3502L11.7992 16.4719L10.9712 16.1097L5.4856 23.7171L2.01829 20.2497L9.62567 14.7642L9.26341 13.9361L0 15.3852V10.4171L9.26341 11.8661L9.62567 11.0381L2.01829 5.55249L5.4856 2.08518L10.9712 9.69256L11.7992 9.33031L10.3502 0.0668945H15.3183L13.8692 9.33031L14.6973 9.69256L20.1829 2.08518L23.6502 5.55249L16.0428 11.0381L16.405 11.8661L25.6684 10.4171V15.3852L16.405 13.9361L16.0428 14.7642L23.6502 20.2497L20.1829 23.7171Z" fill="black"/>
<path d="M20.1829 23.7171L14.6973 16.1097L13.8692 16.4719L15.3183 25.7353H10.3502L11.7992 16.4719L10.9712 16.1097L5.4856 23.7171L2.01829 20.2497L9.62567 14.7642L9.26341 13.9361L0 15.3852V10.4171L9.26341 11.8661L9.62567 11.0381L2.01829 5.55249L5.4856 2.08518L10.9712 9.69256L11.7992 9.33031L10.3502 0.0668945H15.3183L13.8692 9.33031L14.6973 9.69256L20.1829 2.08518L23.6502 5.55249L16.0428 11.0381L16.405 11.8661L25.6684 10.4171V15.3852L16.405 13.9361L16.0428 14.7642L23.6502 20.2497L20.1829 23.7171Z" stroke="black"/>
</svg>
