<svg width="64" height="64" viewBox="0 0 64 64" fill="none" xmlns="http://www.w3.org/2000/svg">
<path d="M25.046 48.2916C30.0436 48.2916 34.7948 46.6991 38.7717 43.6988C44.5436 39.3435 47.8518 32.7094 47.8518 25.4858C47.8518 12.9127 37.6191 2.67999 25.046 2.67999C12.4729 2.67999 2.24017 12.9039 2.24017 25.4858C2.24017 38.0589 12.4641 48.2916 25.046 48.2916ZM25.046 4.4397C36.6513 4.4397 46.0921 13.8805 46.0921 25.4858C46.0921 32.1463 43.039 38.2789 37.7159 42.291C34.0469 45.0626 29.6652 46.5319 25.046 46.5319C13.4407 46.5319 3.99988 37.0911 3.99988 25.4858C3.99988 13.8805 13.4407 4.4397 25.046 4.4397Z" fill="black"/>
<path d="M48.6524 41.8335C47.9837 41.1648 46.8311 41.1648 46.1624 41.8335L42.2734 45.7224C41.9391 46.0568 41.7543 46.4967 41.7543 46.963C41.7543 47.4294 41.9391 47.8781 42.2734 48.2036L53.43 59.3602C54.2834 60.2136 55.4096 60.68 56.615 60.68C57.8204 60.68 58.9555 60.2136 59.8001 59.3602C60.6536 58.5067 61.1199 57.3805 61.1199 56.1751C61.1199 54.9697 60.6536 53.8347 59.8001 52.99L48.6524 41.8335ZM58.5595 58.1196C57.5213 59.1578 55.7088 59.1578 54.6706 58.1196L43.514 46.963L47.403 43.0741L58.5595 54.2306C59.0786 54.7497 59.369 55.436 59.369 56.1751C59.3602 56.9054 59.0786 57.6005 58.5595 58.1196Z" fill="black"/>
<path d="M44.4027 40.0738L40.5137 43.9627C40.1706 44.3059 40.1706 44.8602 40.5137 45.2033C40.6897 45.3793 40.9096 45.4585 41.1384 45.4585C41.3672 45.4585 41.5871 45.3705 41.7631 45.2033L45.6521 41.3144C45.9952 40.9712 45.9952 40.4169 45.6521 40.0738C45.3089 39.7306 44.7458 39.7306 44.4027 40.0738Z" fill="black"/>
</svg>
