<svg width="64" height="64" viewBox="0 0 64 64" fill="none" xmlns="http://www.w3.org/2000/svg">
<path d="M54.5 48.72H52.9C52.737 45.3643 51.6632 42.1163 49.7937 39.3247C47.9243 36.5332 45.3299 34.3035 42.289 32.875H49.7045C49.9134 33.536 50.352 34.1003 50.9409 34.4661C51.5297 34.8318 52.2301 34.9748 52.9152 34.869C53.6003 34.7633 54.2249 34.416 54.6762 33.8898C55.1274 33.3635 55.3755 32.6932 55.3755 32C55.3755 31.3068 55.1274 30.6365 54.6762 30.1102C54.2249 29.584 53.6003 29.2367 52.9152 29.131C52.2301 29.0252 51.5297 29.1682 50.9409 29.5339C50.352 29.8996 49.9134 30.464 49.7045 31.125H35.3275V29.55C35.3275 29.4351 35.305 29.3213 35.261 29.2151C35.2171 29.1089 35.1526 29.0124 35.0714 28.9311C34.9901 28.8499 34.8936 28.7854 34.7874 28.7415C34.6812 28.6975 34.5674 28.6749 34.4525 28.675H29.55C29.4351 28.6749 29.3213 28.6975 29.2151 28.7415C29.1089 28.7854 29.0124 28.8499 28.9311 28.9311C28.8499 29.0124 28.7854 29.1089 28.7415 29.2151C28.6975 29.3213 28.6749 29.4351 28.675 29.55V31.1C24.5504 30.8794 20.6529 29.142 17.7317 26.2217C14.8106 23.3015 13.0719 19.4045 12.85 15.28H14.405C14.5199 15.2801 14.6337 15.2575 14.7399 15.2135C14.8461 15.1696 14.9426 15.1051 15.0239 15.0239C15.1051 14.9426 15.1696 14.8461 15.2135 14.7399C15.2575 14.6337 15.2801 14.5199 15.28 14.405V9.5C15.2801 9.38507 15.2575 9.27126 15.2135 9.16507C15.1696 9.05888 15.1051 8.9624 15.0239 8.88114C14.9426 8.79987 14.8461 8.73542 14.7399 8.69147C14.6337 8.64752 14.5199 8.62493 14.405 8.625H9.49999C9.38506 8.62493 9.27125 8.64752 9.16506 8.69147C9.05887 8.73542 8.96239 8.79987 8.88112 8.88114C8.79986 8.9624 8.73541 9.05888 8.69146 9.16507C8.64751 9.27126 8.62492 9.38507 8.62499 9.5V14.405C8.62492 14.5199 8.64751 14.6337 8.69146 14.7399C8.73541 14.8461 8.79986 14.9426 8.88112 15.0239C8.96239 15.1051 9.05887 15.1696 9.16506 15.2135C9.27125 15.2575 9.38506 15.2801 9.49999 15.28H11.1C11.263 18.6357 12.3368 21.8837 14.2062 24.6753C16.0757 27.4668 18.6701 29.6965 21.711 31.125H14.295C14.086 30.464 13.6475 29.8996 13.0586 29.5339C12.4697 29.1682 11.7694 29.0252 11.0843 29.131C10.3992 29.2367 9.77456 29.584 9.3233 30.1102C8.87205 30.6365 8.62399 31.3068 8.62399 32C8.62399 32.6932 8.87205 33.3635 9.3233 33.8898C9.77456 34.416 10.3992 34.7633 11.0843 34.869C11.7694 34.9748 12.4697 34.8318 13.0586 34.4661C13.6475 34.1003 14.086 33.536 14.295 32.875H28.6725V34.4525C28.6724 34.5674 28.695 34.6812 28.739 34.7874C28.7829 34.8936 28.8474 34.9901 28.9286 35.0714C29.0099 35.1526 29.1064 35.2171 29.2126 35.261C29.3187 35.305 29.4326 35.3276 29.5475 35.3275H34.4525C34.5674 35.3276 34.6812 35.305 34.7874 35.261C34.8936 35.2171 34.9901 35.1526 35.0714 35.0714C35.1526 34.9901 35.2171 34.8936 35.261 34.7874C35.305 34.6812 35.3275 34.5674 35.3275 34.4525V32.9C39.4516 33.1212 43.3485 34.8589 46.2692 37.7791C49.1898 40.6993 50.9281 44.5959 51.15 48.72H49.5935C49.3614 48.72 49.1389 48.8122 48.9748 48.9763C48.8107 49.1404 48.7185 49.3629 48.7185 49.595V54.5C48.7185 54.7321 48.8107 54.9546 48.9748 55.1187C49.1389 55.2828 49.3614 55.375 49.5935 55.375H54.5C54.6149 55.3751 54.7287 55.3525 54.8349 55.3085C54.9411 55.2646 55.0376 55.2001 55.1189 55.1189C55.2001 55.0376 55.2646 54.9411 55.3085 54.8349C55.3525 54.7287 55.375 54.6149 55.375 54.5V49.595C55.375 49.4801 55.3525 49.3663 55.3085 49.2601C55.2646 49.1539 55.2001 49.0574 55.1189 48.9761C55.0376 48.8949 54.9411 48.8304 54.8349 48.7865C54.7287 48.7425 54.6149 48.7199 54.5 48.72ZM10.375 10.375H13.53V13.53H10.375V10.375ZM52.472 30.847C52.7 30.8469 52.923 30.9144 53.1127 31.0411C53.3024 31.1677 53.4502 31.3477 53.5376 31.5584C53.6249 31.7691 53.6478 32.0009 53.6034 32.2246C53.559 32.4483 53.4492 32.6538 53.288 32.8151C53.1267 32.9764 52.9213 33.0863 52.6976 33.1308C52.4739 33.1753 52.2421 33.1525 52.0314 33.0653C51.8207 32.978 51.6406 32.8302 51.5138 32.6406C51.3871 32.451 51.3195 32.2281 51.3195 32C51.3197 31.6944 51.4412 31.4013 51.6573 31.1852C51.8734 30.969 52.1664 30.8474 52.472 30.847ZM11.528 33.153C11.2999 33.1531 11.077 33.0856 10.8873 32.9589C10.6976 32.8323 10.5497 32.6523 10.4624 32.4416C10.3751 32.2309 10.3521 31.9991 10.3966 31.7754C10.441 31.5517 10.5508 31.3462 10.712 31.1849C10.8732 31.0236 11.0787 30.9137 11.3024 30.8692C11.526 30.8247 11.7579 30.8475 11.9686 30.9347C12.1793 31.022 12.3594 31.1698 12.4861 31.3594C12.6129 31.549 12.6805 31.7719 12.6805 32C12.6802 32.3056 12.5587 32.5987 12.3427 32.8148C12.1266 33.031 11.8336 33.1526 11.528 33.153ZM33.578 33.5775H30.423V30.4225H33.578V33.5775ZM53.6245 53.6275H50.469V50.4725H53.6245V53.6275Z" fill="black"/>
</svg>
